<?xml version="1.0" encoding="UTF-8" standalone="no"?>
<svg xmlns:ffdec="https://www.free-decompiler.com/flash" xmlns:xlink="http://www.w3.org/1999/xlink" ffdec:objectType="shape" height="807.8px" width="1304.9px" xmlns="http://www.w3.org/2000/svg">
  <g transform="matrix(1.0, 0.0, 0.0, 1.0, 127.45, 805.3)">
    <path d="M30.0 -480.0 L30.0 -270.0 510.0 -270.0 510.0 -480.0 30.0 -480.0 M1050.0 -510.0 L525.0 -772.5 0.0 -510.0 1050.0 -510.0 M510.0 -240.0 L30.0 -240.0 30.0 -30.0 510.0 -30.0 510.0 -240.0 M540.0 -480.0 L540.0 -270.0 1020.0 -270.0 1020.0 -480.0 540.0 -480.0 M1020.0 -240.0 L540.0 -240.0 540.0 -30.0 1020.0 -30.0 1020.0 -240.0 M0.0 -480.0 L-120.0 -480.0 525.0 -802.5 1170.0 -480.0 1050.0 -480.0 1050.0 0.0 0.0 0.0 0.0 -480.0" fill="#9facb1" fill-opacity="0.7490196" fill-rule="evenodd" stroke="none"/>
    <path d="M0.0 -480.0 L0.0 0.0 1050.0 0.0 1050.0 -480.0 1170.0 -480.0 525.0 -802.5 -120.0 -480.0 0.0 -480.0 M1020.0 -240.0 L1020.0 -30.0 540.0 -30.0 540.0 -240.0 1020.0 -240.0 M540.0 -480.0 L1020.0 -480.0 1020.0 -270.0 540.0 -270.0 540.0 -480.0 M510.0 -240.0 L510.0 -30.0 30.0 -30.0 30.0 -240.0 510.0 -240.0 M1050.0 -510.0 L0.0 -510.0 525.0 -772.5 1050.0 -510.0 M30.0 -480.0 L510.0 -480.0 510.0 -270.0 30.0 -270.0 30.0 -480.0 Z" fill="none" stroke="#ffffff" stroke-linecap="butt" stroke-linejoin="miter-clip" stroke-miterlimit="3.0" stroke-width="5.0"/>
  </g>
</svg>
